<svg width="78" height="78" viewBox="0 0 78 78" fill="none" xmlns="http://www.w3.org/2000/svg">
<g clip-path="url(#clip0_376_144)">
<path d="M39 78C60.5391 78 78 60.5391 78 39C78 17.4609 60.5391 0 39 0C17.4609 0 0 17.4609 0 39C0 60.5391 17.4609 78 39 78Z" fill="#FB8351"/>
<path d="M46.9904 77.1791C62.1077 74.0315 74.0141 62.1327 77.1735 47.0199L57.0619 26.8638L34.4589 42.2493L37.1422 44.9325L20.8975 51.0919L46.9904 77.1791Z" fill="#DC7612"/>
<path d="M54.6215 25.8252H23.3792C21.5087 25.8252 19.9795 27.3561 19.9795 29.2254V48.775C19.9795 50.6431 21.5086 52.1743 23.3792 52.1743H54.6215C56.492 52.1743 58.0216 50.6432 58.0216 48.775V29.2255C58.0216 27.3564 56.492 25.8252 54.6215 25.8252Z" fill="url(#paint0_linear_376_144)"/>
<path d="M38.8578 44.1489L24.6953 51.8179L24.7185 52.1749L39.0229 44.4644L38.8578 44.1489Z" fill="#B5B4B0"/>
<path d="M54.9081 29.0762L45.8336 36.0642L39.0225 44.4649L52.8713 52.1753H54.6196C55.8752 52.1753 56.9748 51.4846 57.5641 50.4645L56.3915 42.675L54.9081 29.0762Z" fill="#B5B4B0"/>
<path d="M39.0244 44.4645L58.0216 29.7562V29.2258C58.0216 27.3564 56.4923 25.8257 54.6215 25.8257H53.8652L39.4777 38.1073L24.509 25.8257H23.3792C21.5087 25.8257 19.9795 27.3566 19.9795 29.2258V48.7755C19.9795 50.6435 21.5086 52.1748 23.3792 52.1748H24.72V33.1117L39.0244 44.4645Z" fill="#DD4B40"/>
<path d="M58.0213 48.7752V29.7559L52.873 33.7418V52.1745H54.6213C56.4918 52.1748 58.0213 50.6436 58.0213 48.7752Z" fill="#A43026"/>
</g>
<defs>
<linearGradient id="paint0_linear_376_144" x1="19.9795" y1="39.0001" x2="48.7895" y2="39.0001" gradientUnits="userSpaceOnUse">
<stop stop-color="#F3F1E8"/>
<stop offset="1" stop-color="#E3E0D0"/>
</linearGradient>
<clipPath id="clip0_376_144">
<rect width="78" height="78" fill="white"/>
</clipPath>
</defs>
</svg>
