<svg width="77" height="77" viewBox="0 0 77 77" fill="none" xmlns="http://www.w3.org/2000/svg">
<path d="M76.3726 38.1863C76.3726 17.0966 59.276 0 38.1863 0C17.0966 0 0 17.0966 0 38.1863C0 59.276 17.0966 76.3726 38.1863 76.3726C59.276 76.3726 76.3726 59.276 76.3726 38.1863Z" fill="#FB8351"/>
<path d="M28.9628 20.9812C28.9628 23.5303 26.7532 25.5967 24.0278 25.5967C21.3022 25.5967 19.0928 23.5303 19.0928 20.9812C19.0928 18.4321 21.3022 16.3657 24.0278 16.3657C26.7532 16.3657 28.9628 18.4321 28.9628 20.9812Z" fill="white"/>
<path d="M19.7686 28.9893H28.2044V54.552H19.7686V28.9893Z" fill="white"/>
<path d="M41.7855 28.9889H33.3496V54.5516H41.7855C41.7855 54.5516 41.7855 46.5041 41.7855 41.4725C41.7855 38.4522 42.8168 35.4189 46.9314 35.4189C51.5814 35.4189 51.5536 39.3712 51.5317 42.4332C51.5034 46.4354 51.571 50.5199 51.571 54.5516H60.0069V41.0601C59.9354 32.4455 57.6906 28.4761 50.3057 28.4761C45.92 28.4761 43.2014 30.4672 41.7855 32.2685V28.9889Z" fill="white"/>
</svg>
