<svg width="82" height="81" viewBox="0 0 82 81" fill="none" xmlns="http://www.w3.org/2000/svg">
<g clip-path="url(#clip0_376_140)">
<path d="M43.3752 0.60791C22.5235 0.60791 5.69141 17.44 5.69141 38.2917C5.69141 46.8334 8.45489 54.8726 13.7306 61.4045L8.45489 77.4829C8.20366 78.4878 8.45489 79.4927 9.20856 80.2464C9.45979 80.7488 10.2135 81.0001 10.7159 81.0001C10.9671 81.0001 11.4696 81.0001 11.7208 80.7488L29.0554 72.9609C33.5774 74.9707 38.3507 75.9756 43.3752 75.9756C64.2269 75.9756 81.0591 59.1435 81.0591 38.2917C81.0591 17.44 64.2269 0.60791 43.3752 0.60791Z" fill="#FB8351"/>
<path d="M65.232 52.1093C64.2271 55.124 60.4587 57.6362 57.1928 58.1387C56.4391 58.3899 55.6854 58.3899 54.6805 58.3899C52.6707 58.3899 49.656 57.8875 44.3803 55.6264C38.3509 53.1142 32.3215 47.8385 27.5482 41.0554V40.8041C26.0408 38.5431 23.2773 34.2723 23.2773 29.7502C23.2773 24.2233 26.0408 21.4598 27.0457 20.2037C28.3019 18.9475 30.0604 18.1938 32.0702 18.1938C32.5727 18.1938 32.8239 18.1938 33.3264 18.1938C35.0849 18.1938 36.3411 18.6963 37.5972 21.2086L38.6021 23.2184C39.3558 25.2282 40.3607 27.4892 40.6119 27.7404C41.3656 29.2478 41.3656 30.5039 40.6119 31.76C40.3607 32.5137 39.8582 33.0162 39.3558 33.5186C39.1045 34.0211 38.8533 34.2723 38.6021 34.2723C38.3509 34.5235 38.3509 34.5235 38.0996 34.7747C38.8533 36.0309 40.3607 38.2919 42.3705 40.0505C45.3852 42.8139 47.6462 43.5676 48.9023 44.0701C49.4048 43.5676 49.9072 42.5627 50.6609 41.809L50.9121 41.3066C52.1683 39.548 54.1781 39.0456 56.1879 39.7992C57.1928 40.3017 62.7197 42.8139 62.7197 42.8139L63.2222 43.0652C63.9759 43.5676 64.9808 43.8188 65.4832 44.8238C66.4881 47.0848 65.7345 50.3507 65.232 52.1093Z" fill="white"/>
</g>
<defs>
<clipPath id="clip0_376_140">
<rect width="80.3922" height="80.3922" fill="white" transform="translate(0.666992 0.60791)"/>
</clipPath>
</defs>
</svg>
